<svg width="24" height="22" viewBox="0 0 24 22" fill="none" xmlns="http://www.w3.org/2000/svg">
<path d="M11.8852 2.96431C11.8852 2.96431 7.022 -0.534049 3.30153 2.5756C-0.418938 5.68525 1.48928 10.0542 1.48928 10.0542C1.48928 10.0542 1.47812 12.2887 6.44172 16.8532L11.4076 21.1267C11.4076 21.1267 11.6731 21.2062 11.8852 21.2699C12.0972 21.3335 12.5636 21.1108 12.9698 20.7948C13.376 20.4788 19.0761 15.3893 19.0761 15.3893C19.0761 15.3893 22.5466 12.216 22.9707 7.59923C23.3947 2.98249 19.0761 1.61406 19.0761 1.61406C19.0761 1.61406 16.3109 0.275188 11.8852 2.96431Z" fill="#FC4C5D" stroke="#FC4C5D" stroke-miterlimit="10"/>
</svg>
