<svg width="22" height="20" viewBox="0 0 22 20" fill="none" xmlns="http://www.w3.org/2000/svg">
<path d="M10.8956 2.79595C10.8956 2.79595 6.47455 -0.352568 3.0923 2.44612C-0.289944 5.2448 1.4448 9.17687 1.4448 9.17687C1.4448 9.17687 1.43466 11.1879 5.94702 15.2959L10.4614 19.1421C10.4614 19.1421 10.7029 19.2137 10.8956 19.271C11.0884 19.3282 11.5124 19.1278 11.8817 18.8434C12.2509 18.559 17.4329 13.9784 17.4329 13.9784C17.4329 13.9784 20.5879 11.1224 20.9734 6.96738C21.3589 2.81232 17.4329 1.58073 17.4329 1.58073C17.4329 1.58073 14.919 0.375745 10.8956 2.79595Z" fill="black" stroke="black" stroke-miterlimit="10"/>
</svg>
